<?xml version="1.0" standalone="no"?>
<!DOCTYPE svg PUBLIC "-//W3C//DTD SVG 20010904//EN"
 "http://www.w3.org/TR/2001/REC-SVG-20010904/DTD/svg10.dtd">
<svg version="1.0" xmlns="http://www.w3.org/2000/svg"
 width="130.000000pt" height="130.000000pt" viewBox="0 0 130.000000 130.000000"
 preserveAspectRatio="xMidYMid meet">

<g transform="translate(0.000000,130.000000) scale(0.100000,-0.100000)"
fill="#000000" stroke="none">
<path d="M0 650 l0 -650 650 0 650 0 0 650 0 650 -650 0 -650 0 0 -650z m580
511 c0 -27 -17 -35 -23 -11 -5 19 0 30 15 30 4 0 8 -9 8 -19z m58 -3 c-5 -32
-28 -35 -28 -4 0 17 5 26 16 26 10 0 14 -7 12 -22z m62 14 c0 -5 -7 -17 -16
-28 -15 -19 -15 -19 -9 0 3 11 0 23 -7 28 -9 5 -6 8 10 8 12 0 22 -4 22 -8z
m49 -19 c0 -25 -1 -26 -9 -8 -12 27 -12 35 0 35 6 0 10 -12 9 -27z m-399 -413
l0 -270 -75 0 -75 0 20 20 c19 19 20 33 20 250 0 217 -1 231 -20 250 l-20 20
75 0 75 0 0 -270z m390 130 c51 -77 97 -140 101 -140 4 0 18 18 30 40 12 22
24 38 26 36 5 -5 -76 -207 -87 -220 -5 -4 -67 80 -139 188 -87 129 -143 203
-164 216 l-32 20 86 0 85 0 94 -140z m340 120 c-19 -19 -20 -33 -20 -248 0
-190 3 -231 16 -250 l15 -22 -87 0 c-84 0 -86 1 -71 18 15 16 17 50 17 270 l0
252 75 0 75 0 -20 -20z m-550 -237 l0 -77 -27 26 c-16 14 -41 32 -57 40 l-29
15 24 6 c14 4 38 20 54 37 16 16 30 30 32 30 2 0 3 -35 3 -77z m80 -208 l0
-75 -92 1 c-81 1 -89 2 -60 12 39 12 128 89 137 117 11 35 15 21 15 -55z
m-225 -215 c0 -30 -33 -51 -62 -39 -17 6 -23 16 -23 39 0 23 6 33 23 39 29 12
62 -9 62 -39z m-157 18 l11 -23 0 23 c1 13 7 22 16 22 11 0 15 -11 15 -40 0
-32 -4 -40 -18 -40 -11 0 -24 10 -30 23 l-11 22 0 -22 c-2 -41 -21 -24 -21 17
0 45 20 54 38 18z m257 -20 c0 -24 -5 -38 -12 -38 -7 0 -13 6 -14 13 0 10 -2
10 -6 0 -2 -7 -11 -13 -19 -13 -10 0 -14 12 -14 41 0 39 1 40 33 37 30 -3 32
-6 32 -40z m79 20 l7 -23 9 23 c16 38 40 28 40 -18 0 -41 -20 -58 -21 -17 l0
22 -9 -22 c-10 -25 -29 -31 -31 -10 0 10 -2 10 -6 0 -2 -7 -11 -13 -19 -13
-10 0 -14 12 -14 40 0 33 4 40 19 40 11 0 21 -9 25 -22z m158 -16 l15 -39 -43
0 c-24 0 -44 1 -44 2 0 2 7 19 15 39 20 46 38 46 57 -2z m86 16 l11 -23 0 23
c1 12 7 22 14 22 9 0 11 -12 9 -40 -5 -45 -23 -53 -40 -17 l-11 22 0 -22 c-1
-13 -7 -23 -14 -23 -9 0 -11 12 -9 40 5 45 23 53 40 18z m146 0 c16 -26 -4
-52 -43 -56 -30 -3 -31 -2 -31 38 0 40 1 41 31 38 18 -2 37 -11 43 -20z m66
-18 c0 -29 -4 -40 -15 -40 -11 0 -15 11 -15 40 0 29 4 40 15 40 11 0 15 -11
15 -40z m90 30 c0 -5 -8 -11 -17 -11 -17 -1 -17 -2 0 -6 9 -2 17 -9 17 -14 0
-5 -8 -10 -17 -10 -17 -1 -17 -2 0 -6 28 -7 19 -23 -13 -23 -28 0 -30 2 -30
40 0 38 2 40 30 40 17 0 30 -4 30 -10z"/>
<path d="M325 340 c-4 -7 -3 -16 3 -22 14 -14 45 -2 40 15 -6 16 -34 21 -43 7z"/>
<path d="M900 330 c0 -11 7 -20 15 -20 8 0 15 9 15 20 0 11 -7 20 -15 20 -8 0
-15 -9 -15 -20z"/>
</g>
</svg>
