<?xml version="1.0" standalone="no"?>
<!DOCTYPE svg PUBLIC "-//W3C//DTD SVG 20010904//EN"
 "http://www.w3.org/TR/2001/REC-SVG-20010904/DTD/svg10.dtd">
<svg version="1.0" xmlns="http://www.w3.org/2000/svg"
 width="900.000000pt" height="500.000000pt" viewBox="0 0 900.000000 500.000000"
 preserveAspectRatio="xMidYMid meet">

<g transform="translate(0.000000,500.000000) scale(0.100000,-0.100000)"
fill="#000000" stroke="none">
<path d="M2833 2816 c-130 -42 -212 -133 -231 -258 -22 -147 44 -275 175 -340
58 -28 77 -33 143 -33 60 1 86 6 134 28 l58 27 -51 59 -51 59 -59 -5 c-137
-13 -228 104 -172 221 36 74 119 108 201 83 23 -7 32 -1 79 53 l53 60 -57 26
c-69 32 -161 40 -222 20z"/>
<path d="M6352 2815 c-69 -19 -86 -29 -139 -78 -65 -60 -95 -126 -101 -217 -5
-99 21 -171 86 -238 73 -74 128 -97 237 -97 78 0 97 4 141 27 76 40 107 70
145 140 31 58 34 70 34 148 0 73 -4 93 -28 142 -67 136 -232 212 -375 173z
m176 -172 c37 -28 72 -91 72 -133 0 -55 -38 -121 -85 -147 -85 -48 -193 -15
-234 70 -26 55 -26 89 0 144 31 64 87 95 162 90 37 -2 67 -10 85 -24z"/>
<path d="M7061 2815 c-100 -28 -172 -91 -217 -189 -23 -52 -26 -67 -22 -140 7
-127 67 -219 176 -273 49 -24 69 -28 142 -28 71 0 94 4 141 26 71 33 125 87
158 158 35 75 36 192 2 262 -70 147 -232 225 -380 184z m176 -171 c53 -40 68
-71 68 -139 0 -69 -15 -99 -69 -139 -39 -30 -143 -30 -183 0 -102 76 -99 210
7 282 29 20 44 23 93 20 37 -3 67 -11 84 -24z"/>
<path d="M280 2806 c-19 -7 -47 -19 -62 -27 l-27 -14 51 -60 c32 -38 57 -58
67 -56 9 2 42 5 73 5 43 1 63 -4 84 -20 71 -53 91 -124 55 -198 -36 -73 -110
-104 -197 -83 -28 7 -34 4 -83 -53 l-53 -60 59 -27 c47 -22 73 -27 133 -27
130 0 234 64 291 179 26 54 31 76 32 139 0 65 -4 84 -32 140 -56 114 -159 176
-289 176 -37 -1 -83 -7 -102 -14z"/>
<path d="M780 2510 l0 -310 85 0 85 0 0 79 0 78 98 7 c127 8 192 39 236 110
56 90 36 222 -44 289 -53 45 -116 57 -297 57 l-163 0 0 -310z m329 155 c33
-17 41 -33 41 -83 -1 -68 -37 -92 -139 -92 l-71 0 0 95 0 95 70 0 c43 0 82 -6
99 -15z"/>
<path d="M1390 2505 l0 -315 240 0 240 0 0 65 0 65 -155 0 -155 0 0 65 0 65
115 0 115 0 0 60 0 60 -115 0 -115 0 0 60 0 60 150 0 150 0 0 65 0 65 -235 0
-235 0 0 -315z"/>
<path d="M1950 2505 l0 -315 80 0 80 0 2 168 3 167 134 -167 134 -168 68 0 69
0 0 315 0 315 -85 0 -85 0 -2 -167 -3 -167 -132 167 -133 167 -65 0 -65 0 0
-315z"/>
<path d="M3180 2510 l0 -310 210 0 210 0 0 65 0 65 -125 0 -125 0 0 245 0 245
-85 0 -85 0 0 -310z"/>
<path d="M3907 2808 c-3 -7 -62 -147 -131 -310 -69 -164 -126 -300 -126 -303
0 -3 37 -5 82 -3 l81 3 22 60 23 60 130 3 130 3 23 -66 24 -65 83 0 c75 0 83
2 78 18 -3 9 -61 150 -129 312 l-124 295 -80 3 c-59 2 -82 -1 -86 -10z m163
-364 c0 -2 -36 -4 -80 -4 -44 0 -80 1 -80 3 0 2 42 113 72 187 9 23 13 15 49
-79 21 -57 39 -105 39 -107z"/>
<path d="M4512 2807 c-47 -15 -119 -81 -132 -123 -16 -47 -7 -119 17 -153 29
-38 89 -68 184 -92 105 -26 131 -41 127 -77 -6 -53 -93 -67 -198 -32 l-60 20
-33 -36 c-62 -71 -61 -73 29 -106 72 -26 229 -31 284 -9 113 46 166 149 126
245 -22 54 -75 86 -194 118 -58 16 -112 34 -120 40 -21 18 -10 61 18 75 31 16
102 16 155 2 l40 -11 42 48 c23 27 43 52 43 55 0 3 -29 16 -65 28 -72 23 -203
28 -263 8z"/>
<path d="M5066 2805 c-116 -41 -172 -149 -128 -248 25 -57 76 -88 192 -117
107 -27 132 -42 128 -78 -4 -39 -41 -54 -113 -48 -33 3 -78 12 -100 22 l-40
16 -42 -48 c-24 -27 -43 -51 -43 -55 0 -12 99 -49 158 -60 68 -13 166 -6 219
16 44 19 89 58 109 97 19 37 18 123 -2 158 -24 40 -85 76 -162 95 -89 22 -150
44 -158 56 -11 19 6 56 31 67 33 15 98 15 150 1 40 -11 40 -11 82 36 24 26 43
51 43 56 0 4 -30 17 -66 29 -78 24 -199 26 -258 5z"/>
<path d="M5500 2506 l0 -316 80 0 80 0 0 85 0 85 43 0 c44 0 44 0 102 -85 l59
-85 88 0 c48 0 88 2 88 6 0 3 -28 45 -62 94 l-62 90 42 38 c52 48 72 95 72
169 0 72 -25 130 -74 170 -55 45 -95 54 -283 60 l-173 6 0 -317z m330 159 c51
-27 55 -113 7 -149 -23 -17 -43 -21 -100 -21 l-72 0 -3 93 -3 92 71 0 c44 0
82 -6 100 -15z"/>
<path d="M7550 2505 l0 -315 70 0 69 0 3 141 3 141 75 -141 75 -141 41 0 41 0
74 138 74 137 3 -137 3 -138 74 0 75 0 0 315 0 315 -67 0 -68 0 -100 -196
c-55 -108 -103 -198 -107 -200 -4 -3 -53 85 -108 196 l-100 200 -65 0 -65 0 0
-315z"/>
<path d="M8459 2811 c-97 -30 -150 -93 -151 -182 0 -102 40 -142 187 -184 50
-14 102 -30 117 -36 37 -15 46 -46 20 -72 -30 -30 -103 -33 -182 -8 l-65 21
-42 -47 c-24 -27 -43 -51 -43 -54 0 -12 94 -47 158 -59 188 -37 344 49 344
190 0 94 -51 141 -197 180 -112 30 -133 39 -141 63 -5 15 1 27 21 45 26 22 35
24 94 19 36 -3 77 -8 91 -11 21 -5 32 2 63 40 20 25 37 49 37 54 0 5 -30 18
-66 30 -68 21 -193 26 -245 11z"/>
</g>
</svg>
